<?xml version="1.0" encoding="UTF-8"?><svg id="Layer_2" xmlns="http://www.w3.org/2000/svg" viewBox="0 0 442.89 217.46"><defs><style>.cls-1{fill:#be1e2d;}.cls-2{letter-spacing:-.02em;}.cls-3{letter-spacing:0em;}.cls-4{letter-spacing:0em;}.cls-5{fill:#f1f2f2;font-family:AvenirNext-BoldItalic, 'Avenir Next';font-size:108.44px;font-style:italic;font-weight:700;}</style></defs><g id="Logo"><path class="cls-1" d="m191.53,25.51c.26,9.96-4.03,17.35-11.31,23.34-6.89,5.67-14.86,9.31-22.42,13.73-6.26,3.66-12.02,8.07-16.23,14.26-3.02,4.44-4.94,9.35-3,14.89,1.84,5.24,5.82,7.53,10.94,8.03,5.4.53,10.13-1.73,14.94-3.77,5.99-2.54,12.12-3.62,18.32-.92,7.04,3.06,12.56,10.96,11.37,21.09-.97,8.18-7.63,15.71-15.66,16.62-4.18.47-8.5-.43-12.76-.68-2.57-.15-5.16-.45-7.72-.31-4.13.22-7.42,3.25-8.18,7.16-.83,4.27.98,8.34,4.97,10.17,3.49,1.6,7.17,2.73,10.77,4.08,7.56,2.82,11.76,9.18,11.48,17.38-.36,10.45-10.42,17.79-20,14.72-3.55-1.14-6.33-3.26-8.81-6.05-1.99-2.23-4.07-4.38-6.27-6.38-1.59-1.45-3.52-2.32-5.75-1.67-4.08,1.19-5.95,5.37-3.91,9.26.98,1.87,2.4,3.53,3.8,5.11,2.73,3.09,3.73,8.4,1.98,12.36-1.76,3.97-5.06,5.41-9.04,5.46-5.63.08-8.77-3.56-10.62-9.24-.42-1.28-.76-2.58-1.16-3.87-1.36-4.43-5.75-5.79-9.1-5.05-10.63,2.34-20.97,1.48-31.14-2.53-3.37-1.33-6.82-2.56-10.33-3.33-6.41-1.4-11.88.75-16.38,5.67-2.15,2.35-4.25,4.75-6.42,7.08-5.56,5.99-14.68,7.06-21,2.5-7.05-5.08-9.48-13.91-5.91-21.87,1.86-4.15,5-7.05,8.92-9,2.92-1.46,5.9-2.81,8.83-4.23,8.63-4.19,10.51-10.52,9.12-18.92-1.45-8.75-1.03-17.3,1.35-25.74,2.44-8.66,1.58-11.79-5.85-16.7-4.88-3.23-6.67-9.21-5.77-13.41.79-3.7,2.97-6.25,6.35-7.31,3.78-1.2,7.54-1.07,10.91,1.63,1.64,1.31,3.38,2.52,5.19,3.57,2.56,1.5,6.1,1.18,8-.87,2.12-2.28,3.67-5.11,2.19-8.27-1.41-3.01-3.32-5.79-5.25-8.49-5.28-7.39-6.82-15.48-3.93-24.2,2.74-8.29,8.58-13.18,16.8-14.46,7.96-1.23,14.61,1.63,19.83,8.17,3.1,3.88,4.31,8.4,4.74,13.29.37,4.18.53,8.42,1.33,12.51,1.53,7.84,6.9,13.98,15.86,13.03,5.36-.57,9.32-3.48,12.57-7.65,4.75-6.09,7.89-13.1,9.62-20.68,1.48-6.51,2.18-13.21,3.64-19.73,1.48-6.63,3.63-13.15,8.55-17.95,7.24-7.07,15.89-9.11,25.22-5.84,8.87,3.11,14.06,10.07,16.07,19.57.3,1.44.18,2.97.25,4.42Z"/><path class="cls-1" d="m215.65,66.79c-.12,8.33-6.29,14.7-14.14,14.61-7.79-.09-14.25-6.86-14.09-14.77.17-8.27,6.62-14.97,14.28-14.84,8.03.14,14.07,6.63,13.95,15Z"/><path class="cls-1" d="m32.45,140.32c-.08,6.19-4.58,10.81-10.42,10.72-5.66-.09-10.27-5.02-10.16-10.84.12-6.25,4.62-10.77,10.66-10.71,5.51.05,10,4.95,9.92,10.83Z"/><path class="cls-1" d="m105.56,35.92c-.48-5.54,5.25-10.41,9.94-10.24,5.15.19,9.75,4.84,9.73,10.14-.02,6.01-4.44,10.67-10.02,10.55-5.62-.12-9.71-4.55-9.65-10.46Z"/><path class="cls-1" d="m193.82,142.08c4.36,0,7.63,3.51,7.61,8.18-.02,4.39-3.45,7.96-7.66,7.98-4.39.02-7.93-3.53-7.92-7.93.01-4.89,3.23-8.22,7.97-8.22Z"/><path class="cls-1" d="m7.82,83.04C3.45,83.09.03,79.58,0,75c-.04-4.96,2.99-8.01,8.04-8.13,3.86-.09,7.38,3.5,7.43,7.56.06,5.04-3.07,8.56-7.65,8.61Z"/><path class="cls-1" d="m63.68,188.34c3.48.04,6.37,3,6.37,6.54,0,3.82-2.92,6.87-6.53,6.82-3.55-.05-6.26-3.17-6.23-7.14.03-3.49,2.87-6.25,6.38-6.21Z"/><text class="cls-5" transform="translate(63.47 165.3)"><tspan x="0" y="0">Sp</tspan><tspan class="cls-4" x="134.68" y="0">a</tspan><tspan class="cls-2" x="194.21" y="0">t</tspan><tspan class="cls-3" x="231.73" y="0">ter</tspan></text></g></svg>